<svg width="37" height="37" viewBox="0 0 37 37" fill="none" xmlns="http://www.w3.org/2000/svg">
<ellipse cx="18.9727" cy="18.1285" rx="12.7757" ry="12.7149" transform="rotate(45 18.9727 18.1285)" stroke="white" stroke-width="0.538507"/>
<path d="M23.9723 17.9665L19.6557 13.6499C19.5368 13.5343 19.3654 13.4906 19.2063 13.5353C19.0471 13.58 18.9243 13.7063 18.8841 13.8667C18.8439 14.0271 18.8924 14.1971 19.0114 14.3128L22.5324 17.8277L14.3935 17.8083C14.1387 17.8077 13.9326 18.0138 13.9332 18.2686C13.9339 18.5234 14.1409 18.7305 14.3957 18.7311L22.5285 18.7505L19.0303 22.2487C18.9426 22.3342 18.8932 22.4516 18.8935 22.5744C18.8938 22.6972 18.9437 22.8149 19.0318 22.9008C19.1169 22.99 19.2353 23.0394 19.3582 23.0369C19.4807 23.0378 19.5981 22.9893 19.6839 22.9023L23.98 18.6063C24.1594 18.4266 24.1587 18.1348 23.9784 17.9542L23.9723 17.9665Z" fill="white"/>
</svg>
