<svg width="20" height="20" viewBox="0 0 20 20" fill="none" xmlns="http://www.w3.org/2000/svg">
<path fill-rule="evenodd" clip-rule="evenodd" d="M5.05048 14.9489C4.90983 14.8083 4.83081 14.6175 4.83081 14.4186C4.83081 14.2197 4.90983 14.0289 5.05048 13.8883L12.5727 6.36606L6.83239 6.50607C6.73214 6.51095 6.63192 6.49566 6.53769 6.4611C6.44345 6.42655 6.3571 6.37343 6.28377 6.30489C6.21044 6.23635 6.15162 6.15379 6.11078 6.0621C6.06994 5.97041 6.04792 5.87146 6.04603 5.7711C6.04413 5.67075 6.0624 5.57103 6.09975 5.47787C6.1371 5.3847 6.19278 5.29998 6.26347 5.22873C6.33416 5.15747 6.41844 5.10113 6.51131 5.06304C6.60417 5.02496 6.70374 5.0059 6.80411 5.007L14.4055 4.83022C14.5063 4.82837 14.6064 4.84685 14.6999 4.88457C14.7934 4.9223 14.8784 4.97848 14.9496 5.04977C15.0209 5.12105 15.0771 5.20598 15.1148 5.29947C15.1526 5.39296 15.171 5.4931 15.1692 5.5939L14.9924 13.1953C14.9935 13.2957 14.9744 13.3952 14.9364 13.4881C14.8983 13.581 14.8419 13.6652 14.7707 13.7359C14.6994 13.8066 14.6147 13.8623 14.5215 13.8997C14.4284 13.937 14.3287 13.9553 14.2283 13.9534C14.1279 13.9515 14.029 13.9295 13.9373 13.8886C13.8456 13.8478 13.7631 13.789 13.6945 13.7156C13.626 13.6423 13.5729 13.556 13.5383 13.4617C13.5037 13.3675 13.4885 13.2673 13.4933 13.167L13.6333 7.42672L6.11114 14.9489C5.97049 15.0896 5.77973 15.1686 5.58081 15.1686C5.3819 15.1686 5.19114 15.0896 5.05048 14.9489Z" fill="#1E9EFF"/>
</svg>
