<svg width="37" height="37" viewBox="0 0 37 37" fill="none" xmlns="http://www.w3.org/2000/svg">
<ellipse cx="18.0351" cy="18.0245" rx="12.7757" ry="12.7149" transform="rotate(-135 18.0351 18.0245)" stroke="white" stroke-width="0.538507"/>
<path d="M13.0355 18.1866L17.3521 22.5031C17.4711 22.6188 17.6424 22.6625 17.8016 22.6178C17.9607 22.5731 18.0835 22.4468 18.1237 22.2864C18.1639 22.126 18.1154 21.9559 17.9965 21.8403L14.4754 18.3253L22.6143 18.3448C22.8691 18.3454 23.0752 18.1393 23.0746 17.8845C23.074 17.6297 22.8669 17.4226 22.6121 17.422L14.4793 17.4026L17.9775 13.9044C18.0653 13.8189 18.1146 13.7015 18.1143 13.5787C18.114 13.4559 18.0641 13.3382 17.976 13.2523C17.891 13.1631 17.7725 13.1137 17.6496 13.1162C17.5271 13.1153 17.4097 13.1638 17.3239 13.2507L13.0279 17.5468C12.8484 17.7265 12.8491 18.0183 13.0294 18.1989L13.0355 18.1866Z" fill="white"/>
</svg>
