<svg width="60" height="36" viewBox="0 0 60 36" fill="none" xmlns="http://www.w3.org/2000/svg">
<path d="M16.9006 13.0454C16.9006 13.7793 16.9865 14.3804 17.1192 14.8175C17.2977 15.3137 17.5116 15.7963 17.7593 16.2618C17.8493 16.3958 17.8982 16.5532 17.8999 16.7146C17.8999 16.9175 17.7828 17.1205 17.5173 17.3157L16.2683 18.1588C16.1149 18.2678 15.9332 18.3302 15.7452 18.3384C15.5501 18.3384 15.3471 18.2369 15.1519 18.0573C14.8841 17.7679 14.6436 17.4543 14.4337 17.1205C14.2307 16.777 14.0278 16.3945 13.8092 15.9417C12.253 17.7789 10.2988 18.6975 7.94636 18.6975C6.27574 18.6975 4.9408 18.2134 3.96496 17.2532C2.98913 16.293 2.4895 15.0205 2.4895 13.4202C2.4895 11.8198 3.08281 10.3443 4.30065 9.30604C5.51849 8.26775 7.13447 7.75251 9.18762 7.75251C9.89556 7.75629 10.6024 7.80845 11.3032 7.90864C12.0371 8.01013 12.7943 8.16626 13.5906 8.34582V6.89378C13.5906 5.37147 13.2705 4.31757 12.6538 3.69304C12.0371 3.06851 10.9441 2.77966 9.40621 2.77966C8.68028 2.77901 7.95689 2.8655 7.25157 3.03728C6.51829 3.21276 5.79829 3.43972 5.09693 3.71646C4.87155 3.81825 4.6394 3.90433 4.40214 3.97408C4.29844 4.00806 4.19093 4.02903 4.08206 4.03654C3.80102 4.03654 3.6605 3.83356 3.6605 3.412V2.43617C3.6605 2.1161 3.69954 1.87409 3.80102 1.74137C3.90251 1.60866 4.08206 1.46033 4.3631 1.31981C5.15944 0.921269 6.00079 0.619853 6.86904 0.422046C7.88581 0.157195 8.93326 0.0285621 9.9839 0.03952C12.3571 0.03952 14.0902 0.578181 15.2066 1.6555C16.3229 2.73282 16.8616 4.37222 16.8616 6.5737V13.0454H16.9006ZM8.8051 16.0822C9.50498 16.0734 10.1986 15.9494 10.8583 15.7153C11.5765 15.4811 12.2166 15.0361 12.7553 14.4428C13.0773 14.0741 13.3097 13.6359 13.4345 13.1625C13.5688 12.5921 13.6343 12.0077 13.6296 11.4216V10.5863C13.0245 10.4399 12.4122 10.3252 11.7951 10.2428C11.1735 10.1654 10.5478 10.1263 9.92145 10.1257C8.58651 10.1257 7.61068 10.3834 6.95492 10.922C6.29916 11.4607 5.97908 12.2257 5.97908 13.225C5.97908 14.2242 6.21328 14.8566 6.71291 15.3406C7.21254 15.8246 7.89172 16.0822 8.8051 16.0822ZM24.8166 18.2369C24.4575 18.2369 24.2233 18.1744 24.0593 18.0339C23.8954 17.8934 23.7627 17.6358 23.6456 17.2532L18.9538 1.81944C18.8367 1.4213 18.7742 1.15587 18.7742 1.01535C18.7742 0.703087 18.9382 0.523534 19.2582 0.523534H21.2099C21.5924 0.523534 21.85 0.578181 21.9906 0.718701C22.1311 0.859221 22.2638 1.11684 22.3887 1.49937L25.7378 14.7239L28.8448 1.49937C28.9463 1.10123 29.0634 0.835801 29.2273 0.718701C29.3913 0.601601 29.6645 0.523534 30.0236 0.523534H31.6162C31.9987 0.523534 32.2563 0.578181 32.4203 0.718701C32.5842 0.859221 32.7169 1.11684 32.795 1.49937L35.9489 14.88L39.3994 1.49937C39.5165 1.10123 39.6571 0.835801 39.7976 0.718701C39.9381 0.601601 40.2113 0.523534 40.5704 0.523534H42.4284C42.7485 0.523534 42.928 0.679667 42.928 1.01535C42.9218 1.12276 42.9088 1.22967 42.889 1.33543C42.8557 1.50548 42.8087 1.67256 42.7485 1.83505L37.9396 17.2766C37.8225 17.6748 37.682 17.9324 37.518 18.0573C37.3541 18.1822 37.1043 18.2525 36.7608 18.2525H35.0511C34.6686 18.2525 34.411 18.1978 34.2548 18.0573C34.0987 17.9168 33.9504 17.6592 33.8723 17.2532L30.7809 4.37222L27.7128 17.2376C27.6114 17.6358 27.4943 17.8934 27.3303 18.0339C27.1664 18.1744 26.8931 18.2369 26.534 18.2369H24.8166ZM50.4459 18.7755C49.41 18.7779 48.3775 18.6573 47.37 18.4164C46.3786 18.1744 45.5979 17.9168 45.0827 17.6201C44.7626 17.4328 44.544 17.2376 44.4582 17.0581C44.3821 16.8804 44.3423 16.6893 44.3411 16.496V15.4811C44.3411 15.0596 44.4972 14.8566 44.8016 14.8566C44.9238 14.859 45.0449 14.8801 45.1608 14.919C45.2779 14.9581 45.4574 15.0361 45.6604 15.122C46.3642 15.4325 47.0998 15.6655 47.8541 15.8168C48.6347 15.9788 49.43 16.0599 50.2273 16.0588C51.4764 16.0588 52.46 15.8402 53.1314 15.403C53.8027 14.9659 54.1697 14.3179 54.1697 13.4982C54.1822 12.9795 53.9885 12.4769 53.631 12.1008C53.2719 11.7261 52.5927 11.3826 51.6169 11.0625L48.7284 10.1648C47.2686 9.70418 46.199 9.025 45.5355 8.12723C44.8952 7.29724 44.5467 6.27919 44.544 5.23096C44.544 4.39564 44.7236 3.65401 45.0827 3.01386C45.4343 2.3724 45.9219 1.81554 46.5113 1.38227C47.134 0.910028 47.8378 0.55551 48.5879 0.336172C49.4054 0.10464 50.252 -0.00840654 51.1016 0.000486606C51.5478 -0.000743555 51.9936 0.0253274 52.4366 0.0785533C52.8972 0.141007 53.3109 0.219072 53.7325 0.297139C54.154 0.375206 54.5131 0.500113 54.8723 0.617213C55.161 0.711278 55.4406 0.831479 55.7076 0.97632C55.9886 1.14026 56.1838 1.29639 56.3087 1.47595C56.4368 1.67274 56.4997 1.90494 56.4882 2.13951V3.07631C56.4882 3.49787 56.3243 3.71646 56.0276 3.71646C55.8637 3.71646 55.6061 3.63839 55.2704 3.47445C54.1306 2.95921 52.8581 2.69379 51.4373 2.69379C50.3054 2.69379 49.4076 2.87334 48.7909 3.25587C48.1741 3.6384 47.8541 4.21609 47.8541 5.03579C47.8478 5.29983 47.8974 5.56221 47.9996 5.80573C48.1019 6.04924 48.2545 6.26839 48.4474 6.4488C48.8455 6.83132 49.5871 7.21385 50.641 7.54954L53.4749 8.4473C54.9113 8.9079 55.9496 9.54804 56.5663 10.3677C57.1732 11.1718 57.4946 12.1553 57.4797 13.1625C57.4894 13.9648 57.313 14.7585 56.9644 15.4811C56.61 16.1649 56.112 16.7641 55.5046 17.2376C54.8879 17.7372 54.154 18.0963 53.2953 18.354C52.3727 18.6397 51.4117 18.7819 50.4459 18.7755Z" fill="white"/>
<path d="M54.2017 28.4792C47.6441 33.335 38.1122 35.9112 29.9152 35.9112C18.4316 35.9112 8.07992 31.6565 0.265448 24.5837C-0.351279 24.0294 0.202996 23.2722 0.944629 23.7093C9.39925 28.6197 19.829 31.5941 30.6178 31.5941C37.8936 31.5941 45.8876 30.0796 53.2493 26.9647C54.3423 26.4651 55.2791 27.6829 54.2017 28.4792ZM56.9341 25.3643C56.0988 24.287 51.3913 24.8491 49.2601 25.1067C48.62 25.1848 48.5185 24.6305 49.0962 24.209C52.8512 21.5703 59.0106 22.3276 59.7289 23.2097C60.4471 24.0919 59.5259 30.2825 56.0207 33.2335C55.482 33.6941 54.959 33.4521 55.201 32.8588C55.9973 30.8759 57.7772 26.4261 56.9341 25.3643Z" fill="white"/>
</svg>
