<svg width="157" height="38" viewBox="0 0 157 38" fill="none" xmlns="http://www.w3.org/2000/svg">
<path d="M92.7876 14.8801C95.2109 14.8801 97.5058 16.3626 97.9901 19.5657H87.1977C87.6494 16.7549 89.7505 14.8801 92.7876 14.8801ZM97.6451 24.3046C96.8209 25.5894 95.2277 26.5777 93.0465 26.5777C90.0411 26.5777 87.7462 24.9302 87.1977 22.0216H100.738C100.803 21.6048 100.836 21.1835 100.836 20.7616C100.836 16.2381 97.6738 12.2305 92.7896 12.2305C87.7492 12.2305 84.3237 15.9465 84.3237 20.7299C84.3237 25.5726 87.7828 29.2294 92.9833 29.2294C96.2151 29.2294 98.671 27.7746 100.092 25.5726L97.6451 24.3046Z" fill="white"/>
<path d="M82.9954 5.21838H80.1847V28.8083H82.9954V5.21838Z" fill="white"/>
<path d="M116.474 18.8882V28.8078H113.663V19.0493C113.663 16.3996 112.145 14.9132 109.656 14.9132C107.071 14.9132 104.971 16.4322 104.971 20.2451V28.8078H102.159V12.6529H104.971V14.9794C106.166 13.073 107.943 12.2329 110.209 12.2329C113.989 12.2329 116.477 14.7531 116.477 18.8902" fill="white"/>
<path d="M131.977 20.7289C131.977 17.4329 129.488 14.9443 126.225 14.9443C122.993 14.9443 120.505 17.4329 120.505 20.7289C120.505 24.0249 122.993 26.5135 126.225 26.5135C129.486 26.5135 131.977 24.0249 131.977 20.7289ZM134.787 5.21838V28.8083H131.977V26.0282C130.684 28.0048 128.616 29.2284 125.869 29.2284C121.377 29.2284 117.693 25.5113 117.693 20.7289C117.693 15.9465 121.377 12.2294 125.869 12.2294C128.615 12.2294 130.684 13.4569 131.977 15.4286V5.21838H134.787Z" fill="white"/>
<path d="M139.86 5.21838H137.05V28.8083H139.86V5.21838Z" fill="white"/>
<path d="M75.1722 20.7289C75.1722 17.4329 72.6846 14.9444 69.4202 14.9444C66.1895 14.9444 63.7009 17.4329 63.7009 20.7289C63.7009 24.025 66.1895 26.5135 69.4202 26.5135C72.6817 26.5135 75.1722 24.025 75.1722 20.7289ZM77.9839 12.6525V28.8074H75.1722V26.0283C73.8795 28.0049 71.8119 29.2284 69.0654 29.2284C64.5736 29.2284 60.8892 25.5114 60.8892 20.7289C60.8892 15.9465 64.5736 12.2295 69.0654 12.2295C71.8119 12.2295 73.8795 13.457 75.1722 15.4286V12.6525H77.9839Z" fill="white"/>
<path d="M56.719 25.698C55.2799 26.229 53.7265 26.3724 52.2146 26.1138C50.7026 25.8551 49.2852 25.2035 48.1045 24.2243C46.9238 23.245 46.0213 21.9726 45.4875 20.5346C44.9536 19.0966 44.8072 17.5435 45.0629 16.031C45.3186 14.5185 45.9675 13.0999 46.9444 11.9173C47.9213 10.7347 49.1919 9.82965 50.6289 9.293C52.0659 8.75634 53.6187 8.60689 55.1317 8.85964C56.6446 9.11239 58.0645 9.75845 59.2491 10.733C59.743 11.1406 60.1898 11.602 60.5813 12.1088L63.0135 10.3298C61.5965 8.47741 59.6615 7.0874 57.4537 6.33597C55.2458 5.58453 52.8646 5.5055 50.6118 6.10889C48.359 6.71228 46.336 7.97092 44.7993 9.72529C43.2627 11.4797 42.2814 13.6508 41.98 15.9634C41.6786 18.2761 42.0706 20.6261 43.1063 22.7158C44.1419 24.8054 45.7747 26.5405 47.7976 27.7012C49.8205 28.8618 52.1424 29.3958 54.4691 29.2353C56.7958 29.0749 59.0225 28.2273 60.8669 26.8L59.2481 24.2403C58.4918 24.8632 57.6371 25.3558 56.719 25.698Z" fill="white"/>
<path d="M153.437 12.6528V21.8224C153.437 24.7873 151.712 26.6651 149.079 26.6651C146.446 26.6651 144.54 24.7873 144.54 21.8224V12.6528H141.696V21.5476C141.696 26.2085 144.6 29.2347 149.079 29.2347C152.953 29.2347 153.558 26.7837 153.558 26.7224V30.0214C153.558 33.2897 152.136 35.1359 149.17 35.1359C148.111 35.1411 147.085 34.761 146.285 34.0665C145.485 33.3719 144.965 32.4102 144.822 31.3605L142.279 32.25C142.643 33.8051 143.522 35.1911 144.775 36.1823C146.027 37.1735 147.578 37.7114 149.175 37.7084C153.775 37.7084 156.291 34.6812 156.291 30.0214V12.6528H153.437Z" fill="white"/>
<path d="M22.9339 22.0641C21.8537 23.0228 20.5046 24.2157 18.0585 24.2157H16.5959C14.8258 24.2157 13.2158 23.5723 12.0635 22.4061C10.9378 21.2666 10.3181 19.707 10.3181 18.014V16.0127C10.3181 14.3197 10.9378 12.7602 12.0635 11.6207C13.2158 10.4545 14.8258 9.81206 16.5959 9.81206H18.0585C20.5076 9.81206 21.8537 11.004 22.9339 11.9626C24.0556 12.9509 25.0232 13.8147 27.6036 13.8147C27.9972 13.8146 28.3901 13.7832 28.7787 13.7208L28.7698 13.6981C28.6153 13.3143 28.434 12.9417 28.2273 12.5833L26.5027 9.59562C25.7249 8.24878 24.6064 7.13038 23.2595 6.35282C21.9126 5.57527 20.3847 5.16595 18.8294 5.16602H15.3792C13.824 5.16595 12.2961 5.57527 10.9492 6.35282C9.60226 7.13038 8.48373 8.24878 7.70601 9.59562L5.98141 12.5833C5.20396 13.9303 4.79468 15.4581 4.79468 17.0134C4.79468 18.5686 5.20396 20.0965 5.98141 21.4435L7.70601 24.4311C8.48373 25.778 9.60226 26.8964 10.9492 27.6739C12.2961 28.4515 13.824 28.8608 15.3792 28.8607H18.8294C20.3847 28.8608 21.9126 28.4515 23.2595 27.6739C24.6064 26.8964 25.7249 25.778 26.5027 24.4311L28.2273 21.4484C28.434 21.0899 28.6153 20.7174 28.7698 20.3336L28.7787 20.3119C28.3903 20.2473 27.9974 20.2143 27.6036 20.213C25.0232 20.213 24.0556 21.0719 22.9339 22.0651" fill="white"/>
<path d="M18.0538 11.6254H16.5911C13.897 11.6254 12.127 13.5496 12.127 16.0125V18.0138C12.127 20.4767 13.897 22.4009 16.5911 22.4009H18.0538C21.9794 22.4009 21.6711 18.3982 27.5989 18.3982C28.1606 18.3976 28.721 18.4492 29.2731 18.5524C29.453 17.5341 29.453 16.4922 29.2731 15.4738C28.721 15.5765 28.1605 15.6282 27.5989 15.628C21.6691 15.628 21.9794 11.6254 18.0538 11.6254Z" fill="white"/>
<path d="M32.6754 20.0153C31.6659 19.2759 30.5017 18.7754 29.2707 18.5516C29.2707 18.5624 29.2707 18.5713 29.2707 18.5812C29.1647 19.1713 28.9991 19.7491 28.7765 20.3058C29.7935 20.4633 30.7583 20.8607 31.5912 21.4651C31.5912 21.473 31.5863 21.4829 31.5833 21.4918C30.5113 24.9629 28.2298 27.9344 25.1533 29.8664C22.0767 31.7985 18.4092 32.5629 14.817 32.0208C11.2248 31.4788 7.94618 29.6662 5.57672 26.9124C3.20727 24.1585 1.90418 20.6462 1.90418 17.0133C1.90418 13.3804 3.20727 9.86799 5.57672 7.11417C7.94618 4.36034 11.2248 2.54777 14.817 2.00571C18.4092 1.46365 22.0767 2.22807 25.1533 4.1601C28.2298 6.09214 30.5113 9.06361 31.5833 12.5347C31.5833 12.5436 31.5882 12.5535 31.5912 12.5614C30.7585 13.1659 29.7935 13.563 28.7765 13.7197C28.9989 14.2772 29.1644 14.8556 29.2707 15.4463C29.2701 15.4555 29.2701 15.4648 29.2707 15.474C30.5017 15.2505 31.6659 14.7503 32.6754 14.0113C33.6459 13.2928 33.4581 12.4814 33.3109 12.0011C32.1109 8.10921 29.5546 4.77697 26.1064 2.60987C22.6583 0.442768 18.547 -0.415386 14.5199 0.191348C10.4927 0.798083 6.81679 2.82944 4.16017 5.91629C1.50354 9.00315 0.0424805 12.9406 0.0424805 17.0133C0.0424805 21.0859 1.50354 25.0234 4.16017 28.1102C6.81679 31.1971 10.4927 33.2284 14.5199 33.8352C18.547 34.4419 22.6583 33.5838 26.1064 31.4167C29.5546 29.2496 32.1109 25.9173 33.3109 22.0255C33.4581 21.5452 33.6459 20.7338 32.6754 20.0153Z" fill="white"/>
<path d="M28.7715 13.7198C28.3831 13.7843 27.9902 13.8173 27.5964 13.8186C25.016 13.8186 24.0484 12.9597 22.9277 11.9665C21.8465 11.0078 20.5004 9.81494 18.0513 9.81494H16.5887C14.8176 9.81494 13.2086 10.4583 12.0563 11.6245C10.9306 12.7641 10.3109 14.3236 10.3109 16.0166V18.0179C10.3109 19.7109 10.9306 21.2704 12.0563 22.4099C13.2086 23.5762 14.8176 24.2186 16.5887 24.2186H18.0513C20.5004 24.2186 21.8465 23.0267 22.9277 22.068C24.0484 21.0797 25.016 20.2159 27.5964 20.2159C27.99 20.216 28.3829 20.2474 28.7715 20.3098C28.9946 19.7533 29.1602 19.1754 29.2657 18.5852C29.2662 18.5753 29.2662 18.5654 29.2657 18.5555C28.7135 18.4532 28.1531 18.4019 27.5915 18.4024C21.6616 18.4024 21.972 22.406 18.0464 22.406H16.5837C13.8896 22.406 12.1195 20.4808 12.1195 18.0179V16.0126C12.1195 13.5498 13.8896 11.6255 16.5837 11.6255H18.0464C21.972 11.6255 21.6636 15.6272 27.5915 15.6272C28.1531 15.6281 28.7136 15.5769 29.2657 15.474C29.2657 15.4651 29.2657 15.4562 29.2657 15.4463C29.1594 14.8556 28.9939 14.2772 28.7715 13.7198Z" fill="#E8E8E8"/>
<path d="M28.7715 13.7198C28.3831 13.7843 27.9902 13.8173 27.5964 13.8186C25.016 13.8186 24.0484 12.9597 22.9277 11.9665C21.8465 11.0078 20.5004 9.81494 18.0513 9.81494H16.5887C14.8176 9.81494 13.2086 10.4583 12.0563 11.6245C10.9306 12.7641 10.3109 14.3236 10.3109 16.0166V18.0179C10.3109 19.7109 10.9306 21.2704 12.0563 22.4099C13.2086 23.5762 14.8176 24.2186 16.5887 24.2186H18.0513C20.5004 24.2186 21.8465 23.0267 22.9277 22.068C24.0484 21.0797 25.016 20.2159 27.5964 20.2159C27.99 20.216 28.3829 20.2474 28.7715 20.3098C28.9946 19.7533 29.1602 19.1754 29.2657 18.5852C29.2662 18.5753 29.2662 18.5654 29.2657 18.5555C28.7135 18.4532 28.1531 18.4019 27.5915 18.4024C21.6616 18.4024 21.972 22.406 18.0464 22.406H16.5837C13.8896 22.406 12.1195 20.4808 12.1195 18.0179V16.0126C12.1195 13.5498 13.8896 11.6255 16.5837 11.6255H18.0464C21.972 11.6255 21.6636 15.6272 27.5915 15.6272C28.1531 15.6281 28.7136 15.5769 29.2657 15.474C29.2657 15.4651 29.2657 15.4562 29.2657 15.4463C29.1594 14.8556 28.9939 14.2772 28.7715 13.7198Z" fill="#E8E8E8"/>
</svg>
