<svg width="393" height="247" viewBox="0 0 393 247" fill="none" xmlns="http://www.w3.org/2000/svg">
<path opacity="0.2" d="M231.431 31.0878C231.355 30.397 231.485 29.6989 231.805 29.082C232.126 28.465 232.622 27.9568 233.231 27.6216C233.84 27.2864 234.536 27.1392 235.229 27.1987C235.922 27.2581 236.581 27.5216 237.125 27.9558C237.668 28.3899 238.07 28.9752 238.28 29.6377C238.491 30.3003 238.5 31.0102 238.306 31.6779C238.113 32.3455 237.726 32.9409 237.194 33.3888C236.662 33.8366 236.009 34.1168 235.318 34.1939C234.859 34.2452 234.394 34.2055 233.95 34.0771C233.506 33.9487 233.091 33.7341 232.73 33.4457C232.37 33.1572 232.069 32.8005 231.846 32.3959C231.623 31.9913 231.482 31.5468 231.431 31.0878ZM228.714 61.8426C228.809 62.7248 229.165 63.5588 229.734 64.2392C230.304 64.9197 231.064 65.4159 231.916 65.6652C232.768 65.9145 233.675 65.9056 234.522 65.6397C235.369 65.3739 236.119 64.8629 236.675 64.1714C237.232 63.48 237.57 62.6392 237.649 61.7553C237.727 60.8715 237.541 59.9843 237.115 59.2059C236.688 58.4276 236.04 57.7931 235.253 57.3828C234.466 56.9724 233.574 56.8046 232.692 56.9005C231.509 57.03 230.426 57.6231 229.68 58.5496C228.934 59.4761 228.587 60.6604 228.714 61.8426ZM36.0679 184.46C36.1516 185.17 35.9804 185.886 35.5849 186.481C35.1893 187.076 34.5951 187.512 33.9082 187.71C33.2213 187.908 32.4862 187.856 31.8342 187.563C31.1821 187.27 30.6553 186.755 30.3478 186.11L7.61715 196.45C7.61715 196.52 7.64272 196.585 7.65003 196.655C7.7698 197.651 7.49425 198.655 6.88239 199.451C6.27053 200.248 5.37102 200.773 4.37652 200.914C3.38201 201.056 2.37159 200.802 1.56168 200.209C0.751758 199.615 0.206744 198.728 0.0433654 197.737C-0.120013 196.747 0.111236 195.732 0.687583 194.91C1.26393 194.087 2.13955 193.524 3.12689 193.339C4.11423 193.154 5.13479 193.362 5.96998 193.92C6.80516 194.478 7.38857 195.34 7.59524 196.323L30.293 185.99C30.0353 185.395 29.976 184.734 30.1238 184.103C30.2716 183.473 30.6188 182.906 31.1138 182.488C31.6088 182.07 32.2254 181.823 32.8723 181.782C33.5192 181.741 34.1619 181.91 34.7054 182.263L50.9014 158.315C50.2337 157.849 49.7333 157.18 49.4737 156.409C49.2141 155.637 49.209 154.802 49.4591 154.027C49.7092 153.252 50.2014 152.578 50.8633 152.103C51.5253 151.628 52.3221 151.378 53.1369 151.389C53.9517 151.4 54.7414 151.672 55.3901 152.165C56.0389 152.658 56.5124 153.345 56.7413 154.127C56.9702 154.908 56.9422 155.742 56.6616 156.507C56.3811 157.271 55.8626 157.925 55.1823 158.374L65.187 174.069C65.7249 173.742 66.3515 173.592 66.979 173.639C67.6067 173.686 68.2038 173.928 68.687 174.331C69.1702 174.734 69.5152 175.277 69.6737 175.886C69.8322 176.495 69.7962 177.138 69.5709 177.725C69.3456 178.312 68.9421 178.814 68.417 179.161C67.8919 179.507 67.2715 179.681 66.6425 179.658C66.0136 179.635 65.4077 179.416 64.9096 179.031C64.4115 178.647 64.0462 178.117 63.8648 177.514L36.0167 184.157C36.0387 184.256 36.0533 184.358 36.0679 184.46ZM34.8077 182.332C35.3881 182.743 35.8047 183.345 35.9839 184.033L63.8319 177.39C63.7969 177.253 63.7712 177.114 63.7552 176.974C63.6934 176.424 63.7845 175.868 64.0184 175.366C64.2523 174.865 64.62 174.437 65.0811 174.131L55.0764 158.436C54.463 158.815 53.754 159.012 53.0326 159.003C52.3112 158.994 51.6073 158.78 51.0037 158.385L34.8077 182.332ZM252.036 2.02296C252.659 1.95415 253.255 1.73163 253.77 1.37546C254.285 1.01928 254.704 0.540627 254.988 -0.0173831L286.696 15.4732C286.501 15.9883 286.431 16.5425 286.492 17.0901C286.585 17.9427 286.987 18.732 287.621 19.3098C288.256 19.8876 289.079 20.2143 289.937 20.2285C290.796 20.2427 291.63 19.9434 292.283 19.387C292.936 18.8305 293.363 18.0549 293.485 17.2059C293.607 16.3568 293.414 15.4925 292.943 14.7753C292.473 14.058 291.756 13.537 290.929 13.31C290.101 13.0831 289.219 13.1657 288.448 13.5424C287.676 13.9192 287.069 14.5642 286.74 15.3564L255.039 -0.134183C255.338 -0.762246 255.456 -1.46133 255.378 -2.15263C255.296 -2.89526 254.995 -3.59673 254.513 -4.16832C254.031 -4.73991 253.391 -5.15594 252.673 -5.3638C251.954 -5.57166 251.191 -5.56201 250.478 -5.33607C249.765 -5.11013 249.135 -4.67805 248.668 -4.09448C248.201 -3.5109 247.918 -2.80205 247.854 -2.05756C247.79 -1.31308 247.949 -0.566404 248.31 0.088027C248.671 0.742458 249.218 1.27525 249.882 1.61902C250.546 1.96278 251.297 2.10209 252.04 2.01931L252.036 2.02296ZM455.067 172.397C454.136 172.501 453.195 172.378 452.323 172.037C451.451 171.696 450.675 171.148 450.063 170.441L366.204 241.382C366.726 242.01 367.052 242.778 367.139 243.59C367.275 244.702 366.962 245.822 366.271 246.703C365.58 247.585 364.566 248.156 363.454 248.291C362.341 248.426 361.221 248.114 360.338 247.423C359.456 246.733 358.884 245.72 358.749 244.608L269.149 249.901C269.182 251.221 268.707 252.503 267.822 253.483C266.938 254.464 265.711 255.069 264.394 255.173C263.076 255.277 261.77 254.873 260.741 254.044C259.713 253.215 259.042 252.023 258.867 250.715C258.839 250.448 258.832 250.18 258.845 249.912L155.441 243.999C155.399 244.531 155.158 245.029 154.768 245.394C154.377 245.759 153.864 245.964 153.329 245.971C152.795 245.977 152.277 245.784 151.878 245.428C151.478 245.073 151.226 244.581 151.171 244.05C151.144 243.815 151.157 243.576 151.211 243.345L63.5652 220.971C63.3461 221.78 62.8511 222.487 62.1657 222.97C61.4804 223.453 60.6478 223.681 59.8118 223.616C58.9757 223.55 58.1888 223.195 57.587 222.612C56.9851 222.028 56.6062 221.253 56.5156 220.42C56.4882 220.166 56.4882 219.911 56.5156 219.657L42.0838 217.931C42.0604 218.625 41.7647 219.283 41.2606 219.762C40.7565 220.241 40.0842 220.502 39.3888 220.491C38.6933 220.479 38.0303 220.195 37.5426 219.699C37.0549 219.203 36.7817 218.536 36.7817 217.841C36.7817 217.146 37.0549 216.479 37.5426 215.983C38.0303 215.488 38.6933 215.203 39.3888 215.192C40.0842 215.18 40.7565 215.442 41.2606 215.921C41.7647 216.399 42.0604 217.057 42.0838 217.752C42.082 217.769 42.082 217.786 42.0838 217.803L56.5375 219.533C56.6463 218.74 57.0168 218.005 57.5904 217.446C58.164 216.886 58.9079 216.534 59.7044 216.445C59.8139 216.445 59.9272 216.427 60.0368 216.427L60.0185 194.381C59.3263 194.367 58.6528 194.154 58.0786 193.767C57.5045 193.38 57.054 192.837 56.7812 192.201C56.5084 191.565 56.4248 190.864 56.5404 190.182C56.656 189.5 56.9659 188.865 57.4331 188.355C57.9002 187.844 58.5047 187.479 59.1743 187.303C59.8438 187.126 60.55 187.147 61.2082 187.361C61.8664 187.576 62.4488 187.975 62.8856 188.512C63.3225 189.049 63.5952 189.7 63.6712 190.388C63.6695 190.395 63.6695 190.403 63.6712 190.41L73.3179 191.534C73.2806 191.068 73.3887 190.601 73.6275 190.199C73.8662 189.797 74.2238 189.478 74.6511 189.288C75.0784 189.097 75.5543 189.043 76.0135 189.133C76.4727 189.224 76.8925 189.454 77.2153 189.793L83.6659 181.274C83.1416 181.018 82.7144 180.6 82.4488 180.081C82.1832 179.562 82.0935 178.97 82.1933 178.396C82.293 177.822 82.5767 177.295 83.0017 176.896C83.4267 176.497 83.9701 176.246 84.5499 176.182C84.824 176.15 85.1016 176.162 85.3717 176.219L90.7156 158.45C90.2327 158.3 89.7953 158.031 89.4434 157.668C89.0915 157.305 88.8365 156.86 88.7017 156.373C88.5669 155.886 88.5566 155.373 88.6718 154.881C88.787 154.389 89.024 153.933 89.3611 153.556C89.6981 153.18 90.1244 152.894 90.6009 152.724C91.0774 152.555 91.5889 152.508 92.0883 152.587C92.5877 152.667 93.0592 152.87 93.4595 153.179C93.8598 153.488 94.176 153.892 94.3793 154.355L141.499 134.368C141.403 134.125 141.339 133.871 141.309 133.612C141.242 133.077 141.326 132.534 141.549 132.043C141.773 131.553 142.128 131.133 142.575 130.832C143.022 130.53 143.545 130.359 144.084 130.336C144.623 130.313 145.158 130.439 145.629 130.701C146.101 130.963 146.491 131.351 146.755 131.821C147.02 132.29 147.149 132.824 147.129 133.363C147.109 133.902 146.939 134.424 146.64 134.873C146.341 135.322 145.923 135.679 145.433 135.904L169.453 189.486C170.078 189.173 170.773 189.025 171.472 189.056C172.171 189.088 172.85 189.297 173.445 189.665L198.397 149.216C197.936 148.901 197.555 148.483 197.284 147.995C197.014 147.507 196.861 146.963 196.837 146.406C196.814 145.848 196.921 145.293 197.15 144.784C197.378 144.276 197.723 143.827 198.156 143.475L166.432 103.255C165.734 103.726 164.932 104.02 164.094 104.113C162.819 104.257 161.536 103.93 160.485 103.195C159.434 102.46 158.687 101.367 158.386 100.121C158.084 98.8751 158.247 97.562 158.846 96.428C159.444 95.2941 160.436 94.4173 161.635 93.9623C162.835 93.5073 164.159 93.5053 165.36 93.9567C166.56 94.4081 167.555 95.2819 168.157 96.414C168.759 97.5462 168.926 98.8588 168.628 100.106C168.33 101.353 167.587 102.448 166.538 103.186L198.247 143.405C198.8 142.984 199.463 142.732 200.156 142.681C200.85 142.63 201.543 142.781 202.152 143.117L229.211 99.2148C228.858 98.8714 228.637 98.4155 228.586 97.9263C228.539 97.5081 228.617 97.0854 228.809 96.7109C229.002 96.3365 229.3 96.027 229.667 95.8209C230.034 95.6148 230.454 95.5214 230.874 95.5523C231.294 95.5831 231.696 95.7369 232.029 95.9944C232.362 96.2519 232.612 96.6017 232.747 97.0002C232.883 97.3988 232.898 97.8283 232.79 98.2352C232.683 98.6421 232.458 99.0085 232.144 99.2885C231.829 99.5685 231.439 99.7498 231.022 99.8097L259.148 144.31C259.677 143.869 260.314 143.576 260.995 143.463C261.675 143.35 262.373 143.421 263.016 143.668L288.066 101.511C287.345 100.974 286.803 100.232 286.51 99.3831C286.217 98.5338 286.187 97.616 286.424 96.7494C286.66 95.8827 287.152 95.1073 287.836 94.5243C288.52 93.9412 289.364 93.5776 290.258 93.4807C290.994 93.3955 291.741 93.4972 292.428 93.7763L302.25 75.3329C301.938 75.1587 301.666 74.9221 301.45 74.6379C301.234 74.3536 301.079 74.028 300.995 73.6812C300.911 73.3344 300.9 72.9741 300.962 72.6227C301.024 72.2713 301.157 71.9365 301.355 71.6392L265.759 46.8922C265.359 47.4232 264.766 47.7753 264.109 47.8722C263.451 47.9692 262.781 47.8033 262.245 47.4104C261.709 47.0175 261.349 46.4293 261.244 45.7733C261.139 45.1172 261.296 44.4461 261.683 43.9054C262.069 43.3647 262.653 42.998 263.309 42.8847C263.964 42.7714 264.637 42.9206 265.183 43.3001C265.729 43.6795 266.103 44.2586 266.225 44.9119C266.346 45.5651 266.205 46.2399 265.832 46.79L301.428 71.5369C301.825 70.9795 302.426 70.6011 303.101 70.4838C303.775 70.3666 304.469 70.5199 305.031 70.9106C305.593 71.3013 305.979 71.8978 306.104 72.5707C306.228 73.2435 306.082 73.9383 305.698 74.5044L324.436 87.5312C324.744 87.1073 325.174 86.7866 325.668 86.6112C326.162 86.4359 326.698 86.4141 327.204 86.5488C327.711 86.6835 328.165 86.9683 328.507 87.3659C328.849 87.7634 329.062 88.2549 329.119 88.7758C329.117 88.7891 329.117 88.8027 329.119 88.816L343.653 85.4398C343.555 85.1418 343.488 84.8349 343.452 84.5236C343.388 83.9383 343.439 83.3462 343.604 82.7809C343.769 82.2156 344.043 81.6883 344.412 81.229C344.781 80.7698 345.236 80.3876 345.753 80.1043C346.269 79.821 346.837 79.6421 347.422 79.5779C348.008 79.5136 348.601 79.5653 349.166 79.7299C349.732 79.8946 350.26 80.1689 350.719 80.5373C351.179 80.9058 351.561 81.361 351.845 81.8772C352.128 82.3933 352.307 82.9602 352.372 83.5454C352.403 83.8439 352.403 84.1448 352.372 84.4433L411.969 90.6702C412.124 90.0859 412.416 89.5468 412.821 89.0974C413.226 88.6479 413.732 88.301 414.297 88.0851C414.862 87.8692 415.47 87.7905 416.072 87.8555C416.674 87.9205 417.251 88.1273 417.757 88.459C418.263 88.7906 418.683 89.2376 418.982 89.7631C419.281 90.2886 419.451 90.8776 419.478 91.4816C419.505 92.0856 419.388 92.6874 419.137 93.2374C418.885 93.7873 418.507 94.2698 418.032 94.645L453.251 161.027C453.425 160.99 453.601 160.962 453.777 160.943C455.283 160.804 456.783 161.261 457.955 162.215C459.127 163.17 459.877 164.545 460.045 166.047C460.212 167.548 459.784 169.056 458.851 170.245C457.918 171.433 456.555 172.209 455.056 172.404L455.067 172.397ZM417.945 94.7107C417.495 95.0446 416.977 95.275 416.427 95.3854C415.878 95.4958 415.311 95.4836 414.767 95.3495L394.18 155.775C394.853 156.016 395.444 156.44 395.887 157.001C396.33 157.561 396.607 158.234 396.686 158.943C396.724 159.249 396.724 159.558 396.686 159.863L448.927 164.94C449.23 163.983 449.777 163.122 450.515 162.442C451.253 161.761 452.156 161.285 453.135 161.06L417.945 94.7107ZM154.908 242.393L179.501 221.909C178.862 221.128 178.462 220.178 178.351 219.175C178.305 218.759 178.312 218.338 178.369 217.923L122.541 204.783C122.224 205.864 121.57 206.815 120.675 207.499L151.913 242.174C152.239 241.899 152.639 241.726 153.063 241.677C153.406 241.64 153.752 241.685 154.073 241.809C154.394 241.934 154.681 242.134 154.908 242.393ZM112.339 202.17L77.5367 192.45C77.2832 192.909 76.8778 193.266 76.39 193.459C75.9022 193.652 75.3623 193.67 74.863 193.509L61.8923 216.905C62.7004 217.37 63.2962 218.13 63.5543 219.026L112.844 205.82C112.523 205.224 112.32 204.572 112.245 203.9C112.177 203.322 112.209 202.737 112.339 202.17ZM86.8547 180.635L113.074 200.436C113.498 199.788 114.06 199.242 114.721 198.836C115.382 198.431 116.124 198.177 116.894 198.093C117.105 198.069 117.318 198.059 117.53 198.064L120.087 179.003C119.226 178.875 118.428 178.477 117.807 177.867C117.186 177.258 116.775 176.467 116.631 175.609L87.5232 178.81C87.535 179.48 87.2967 180.131 86.8547 180.635ZM221.314 176.872L175.239 191.95C175.317 192.2 175.371 192.456 175.399 192.716C175.47 193.346 175.392 193.984 175.173 194.578L215.929 210.087C216.257 209.225 216.784 208.452 217.466 207.832C218.149 207.212 218.969 206.761 219.859 206.517C220.749 206.273 221.684 206.242 222.588 206.428C223.492 206.613 224.339 207.009 225.061 207.583L233.594 193.224C233.13 192.938 232.738 192.551 232.447 192.091C232.155 191.632 231.972 191.112 231.91 190.571C231.849 190.031 231.912 189.483 232.093 188.97C232.275 188.457 232.571 187.992 232.958 187.61L225.653 178.372C225.29 178.646 224.866 178.826 224.417 178.897C223.967 178.968 223.508 178.926 223.079 178.777C222.649 178.627 222.264 178.374 221.956 178.04C221.648 177.706 221.427 177.301 221.314 176.861V176.872ZM259.21 150.34L237.349 187.114C237.861 187.429 238.286 187.868 238.584 188.39C238.882 188.912 239.044 189.5 239.056 190.101C239.067 190.702 238.927 191.297 238.648 191.829C238.37 192.362 237.962 192.817 237.462 193.151L258.187 219.431C258.765 218.971 259.448 218.661 260.175 218.53C260.902 218.398 261.65 218.449 262.352 218.677C263.055 218.905 263.69 219.304 264.2 219.837C264.71 220.371 265.081 221.022 265.277 221.734L297.749 213.182C297.7 212.99 297.663 212.795 297.64 212.598C297.552 211.796 297.681 210.984 298.016 210.249C298.35 209.515 298.876 208.883 299.539 208.422L263.166 150.873C262.52 151.152 261.811 151.249 261.114 151.155C260.417 151.061 259.759 150.78 259.21 150.34ZM291.175 102.387L303.265 207.78C304.032 207.985 304.732 208.389 305.292 208.952L350.26 161.137C349.611 160.516 349.098 159.766 348.755 158.936C348.412 158.106 348.246 157.213 348.267 156.316C348.289 155.418 348.498 154.534 348.881 153.721C349.264 152.909 349.812 152.185 350.491 151.596L294.791 99.89C294.462 100.569 293.966 101.153 293.35 101.589C292.733 102.024 292.016 102.296 291.266 102.379L291.175 102.387ZM263.367 245.021L261.402 227.399C260.687 227.467 259.966 227.362 259.3 227.092C258.634 226.823 258.043 226.397 257.577 225.851C257.111 225.305 256.784 224.654 256.623 223.955C256.462 223.255 256.473 222.527 256.653 221.832L227.066 213.781C226.83 214.613 226.412 215.384 225.843 216.036L260.215 246.663C261.035 245.757 262.153 245.174 263.367 245.021ZM233.681 193.286L225.134 207.663C226.311 208.63 227.063 210.019 227.231 211.532C227.309 212.245 227.257 212.966 227.077 213.66L256.664 221.69C256.911 220.836 257.405 220.074 258.085 219.5L237.356 193.198C236.807 193.542 236.176 193.73 235.528 193.742C234.881 193.754 234.243 193.59 233.681 193.268V193.286ZM173.211 196.819L181.704 213.689C182.454 213.398 183.26 213.282 184.062 213.353C184.863 213.423 185.638 213.677 186.325 214.095C187.012 214.514 187.594 215.084 188.024 215.763C188.455 216.442 188.723 217.211 188.808 218.011C188.808 218.128 188.808 218.245 188.83 218.376L215.601 213.047C215.601 212.978 215.579 212.912 215.572 212.846C215.471 211.958 215.576 211.059 215.878 210.218L175.133 194.695C174.766 195.609 174.085 196.362 173.211 196.819ZM188.458 220.544L259.247 248.116C259.46 247.616 259.751 247.153 260.109 246.744L225.737 216.113C224.997 216.926 224.042 217.515 222.983 217.811C221.924 218.108 220.803 218.101 219.748 217.791C218.692 217.481 217.745 216.881 217.015 216.059C216.285 215.237 215.801 214.226 215.619 213.142L188.838 218.471C188.856 219.185 188.727 219.896 188.458 220.559V220.544ZM267.684 246.51L299.671 215.85C298.754 215.256 298.086 214.347 297.793 213.295L265.31 221.88C265.36 222.072 265.396 222.267 265.42 222.464C265.549 223.632 265.213 224.805 264.484 225.728C263.756 226.652 262.693 227.251 261.526 227.399L263.495 245.021C264.261 244.942 265.036 245.036 265.761 245.296C266.486 245.557 267.143 245.976 267.684 246.525V246.51ZM306.363 213.485L359.231 242.064C359.555 241.464 360.018 240.952 360.583 240.57C361.148 240.189 361.797 239.95 362.475 239.874H362.515L355.776 162.86L355.436 162.907C354.516 163.006 353.586 162.906 352.708 162.614C351.83 162.321 351.025 161.844 350.348 161.213L305.369 209.047C305.921 209.628 306.304 210.347 306.479 211.129C306.654 211.91 306.614 212.724 306.363 213.485ZM365.171 240.495L391.598 162.987C390.925 162.746 390.333 162.321 389.889 161.76C389.445 161.2 389.168 160.526 389.088 159.816C389.077 159.637 389.077 159.458 389.088 159.279L361.182 156.545C361.161 158.038 360.624 159.477 359.661 160.619C358.698 161.76 357.369 162.532 355.9 162.805L362.639 239.841C363.524 239.779 364.405 239.999 365.156 240.469L365.171 240.495ZM329.163 88.9474C329.209 89.5653 329.032 90.1793 328.665 90.6786C328.298 91.178 327.764 91.5298 327.161 91.6708C326.557 91.8117 325.922 91.7324 325.372 91.4472C324.821 91.162 324.391 90.6897 324.158 90.1154L295.112 96.8642C295.162 97.0561 295.199 97.2513 295.222 97.4482C295.313 98.2455 295.187 99.0526 294.857 99.7842L350.575 151.508C351.471 150.759 352.554 150.268 353.708 150.085C354.863 149.902 356.045 150.035 357.129 150.471C358.213 150.906 359.159 151.626 359.867 152.556C360.574 153.485 361.016 154.589 361.145 155.749C361.171 155.976 361.185 156.204 361.186 156.432L389.063 159.129C389.097 158.548 389.265 157.983 389.552 157.477C389.839 156.971 390.239 156.537 390.72 156.209C391.201 155.882 391.751 155.668 392.327 155.586C392.904 155.504 393.491 155.555 394.045 155.735L414.635 95.3203C413.902 95.1144 413.247 94.6946 412.754 94.1146C412.26 93.5347 411.952 92.8208 411.867 92.0645C411.818 91.6362 411.844 91.2028 411.943 90.7833L352.364 84.5564C352.248 85.5567 351.797 86.4885 351.085 87.2006C350.373 87.9127 349.44 88.3634 348.439 88.4796C347.438 88.5958 346.427 88.3707 345.57 87.8408C344.714 87.3109 344.061 86.5072 343.718 85.5602L329.163 88.9474ZM292.555 93.8311C293.166 94.0965 293.709 94.4947 294.146 94.9967C294.582 95.4988 294.901 96.0919 295.079 96.7328L324.115 89.9876C324.039 89.7838 323.988 89.5719 323.961 89.3562C323.893 88.7509 324.041 88.141 324.378 87.6334L305.639 74.6102C305.276 75.1057 304.748 75.4566 304.151 75.6009C303.553 75.7452 302.924 75.6735 302.374 75.3986L292.555 93.8311ZM263.144 143.704C263.842 143.994 264.44 144.481 264.865 145.105C265.29 145.729 265.525 146.463 265.539 147.218C265.554 147.973 265.349 148.716 264.948 149.356C264.547 149.996 263.969 150.505 263.283 150.822L299.66 208.375C300.244 207.99 300.911 207.748 301.607 207.67C302.115 207.615 302.629 207.647 303.126 207.765L291.04 102.394C290.021 102.458 289.011 102.169 288.179 101.576L263.144 143.704ZM202.261 143.172C202.758 143.466 203.177 143.877 203.481 144.368C203.785 144.859 203.966 145.416 204.009 145.992C204.051 146.568 203.953 147.146 203.724 147.676C203.495 148.206 203.141 148.673 202.692 149.037L222.325 173.948C222.611 173.723 222.938 173.557 223.288 173.459C223.638 173.36 224.004 173.332 224.365 173.374C224.726 173.417 225.075 173.531 225.392 173.709C225.71 173.886 225.989 174.125 226.214 174.41C226.439 174.695 226.605 175.022 226.704 175.372C226.802 175.722 226.831 176.088 226.788 176.448C226.745 176.809 226.631 177.158 226.454 177.475C226.276 177.792 226.037 178.071 225.752 178.295L233.028 187.526C233.587 187.008 234.297 186.682 235.055 186.596C235.813 186.51 236.578 186.669 237.239 187.048L259.111 150.242C258.691 149.881 258.353 149.435 258.12 148.933C257.887 148.431 257.764 147.886 257.76 147.332C257.755 146.779 257.869 146.231 258.094 145.726C258.319 145.22 258.65 144.769 259.064 144.402L230.902 99.8718L230.957 99.8389C230.66 99.8724 230.361 99.8435 230.076 99.7543C229.792 99.665 229.529 99.5173 229.306 99.3206L202.261 143.172ZM173.558 189.727C174.32 190.229 174.894 190.968 175.191 191.83L221.273 176.74C221.256 176.65 221.242 176.559 221.23 176.467C221.178 176.01 221.242 175.547 221.414 175.12C221.587 174.694 221.864 174.317 222.219 174.025L202.586 149.114C202.002 149.559 201.296 149.814 200.562 149.845C199.829 149.875 199.103 149.68 198.484 149.285L173.558 189.727ZM167.206 193.629C167.158 193.174 167.184 192.714 167.283 192.268L124.755 175.525C124.623 176.424 124.196 177.254 123.542 177.885C122.888 178.517 122.043 178.914 121.139 179.014C120.827 179.049 120.512 179.049 120.2 179.014L117.643 198.06C118.434 198.084 119.21 198.287 119.911 198.653C120.613 199.019 121.223 199.539 121.695 200.173C122.168 200.808 122.491 201.541 122.64 202.318C122.789 203.095 122.76 203.895 122.556 204.659L178.369 217.799C178.509 216.901 178.88 216.054 179.445 215.341C180.01 214.628 180.751 214.074 181.594 213.733L173.105 196.874C172.686 197.081 172.234 197.213 171.769 197.264C171.23 197.326 170.685 197.28 170.164 197.131C169.643 196.981 169.156 196.73 168.732 196.393C168.309 196.055 167.956 195.637 167.694 195.163C167.432 194.689 167.266 194.167 167.206 193.629ZM94.4267 154.461C94.5282 154.713 94.5958 154.976 94.6276 155.246C94.699 155.898 94.5553 156.555 94.2185 157.118L117.924 171.864C118.563 171.284 119.368 170.921 120.226 170.828C120.764 170.768 121.31 170.815 121.83 170.966C122.351 171.117 122.837 171.37 123.259 171.709C123.682 172.048 124.034 172.467 124.294 172.942C124.555 173.417 124.719 173.939 124.777 174.478C124.812 174.787 124.812 175.099 124.777 175.408L167.32 192.158C167.462 191.606 167.716 191.09 168.068 190.642C168.419 190.193 168.86 189.822 169.361 189.552L145.334 135.956C145.078 136.067 144.805 136.139 144.527 136.167C143.915 136.234 143.299 136.106 142.764 135.802C142.23 135.498 141.805 135.033 141.55 134.474L94.4267 154.461ZM85.4777 176.255C86.0115 176.387 86.492 176.679 86.8545 177.092C87.217 177.505 87.444 178.019 87.5049 178.565C87.5085 178.612 87.5085 178.658 87.5049 178.704L116.591 175.481C116.591 175.448 116.591 175.419 116.591 175.386C116.521 174.758 116.598 174.123 116.814 173.529C117.03 172.935 117.38 172.399 117.837 171.963L94.1637 157.235C93.8132 157.772 93.3007 158.183 92.7004 158.41C92.1002 158.636 91.4434 158.666 90.8252 158.494L85.4777 176.255ZM77.2847 189.895C77.5763 190.239 77.7593 190.662 77.8107 191.111C77.8579 191.535 77.7832 191.964 77.5952 192.348L112.369 202.06C112.502 201.523 112.717 201.01 113.008 200.538L86.7707 180.719C86.3356 181.175 85.7536 181.463 85.127 181.533C84.6628 181.583 84.1935 181.513 83.7646 181.329L77.2847 189.895ZM60.1536 216.434C60.7235 216.443 61.283 216.587 61.7864 216.854L74.7461 193.476C74.3671 193.331 74.0342 193.086 73.7823 192.768C73.5304 192.451 73.3687 192.071 73.3142 191.669L63.6602 190.545C63.7244 191.47 63.4286 192.385 62.8345 193.097C62.2404 193.81 61.3938 194.266 60.4714 194.37C60.3582 194.37 60.2486 194.37 60.139 194.37L60.1536 216.434ZM151.241 243.221C151.345 242.856 151.546 242.526 151.821 242.265L120.573 207.572C119.974 208.008 119.291 208.312 118.566 208.466C117.842 208.62 117.094 208.619 116.37 208.464C115.646 208.309 114.963 208.003 114.365 207.566C113.768 207.13 113.269 206.572 112.902 205.929L63.5908 219.15C63.6295 219.306 63.6588 219.464 63.6785 219.624C63.7239 220.035 63.6967 220.45 63.5981 220.851L151.241 243.221ZM258.852 249.791C258.887 249.265 259.003 248.746 259.195 248.255L188.407 220.675C188.053 221.495 187.496 222.211 186.788 222.756C186.081 223.301 185.246 223.657 184.362 223.79C183.479 223.924 182.576 223.83 181.739 223.518C180.902 223.206 180.158 222.686 179.578 222.008L154.988 242.491C155.239 242.806 155.394 243.186 155.434 243.586C155.441 243.685 155.441 243.784 155.434 243.882L258.852 249.791ZM269.153 249.791L358.749 244.484C358.666 243.686 358.815 242.88 359.177 242.163L306.322 213.591C306.102 214.218 305.744 214.789 305.275 215.26C304.806 215.732 304.237 216.093 303.611 216.317C302.984 216.541 302.315 216.622 301.653 216.555C300.991 216.487 300.353 216.273 299.784 215.927L267.772 246.616C268.535 247.427 269.014 248.463 269.138 249.569C269.145 249.638 269.145 249.707 269.153 249.777V249.791ZM449.982 170.353C449.382 169.627 448.968 168.765 448.777 167.843C448.586 166.92 448.624 165.965 448.886 165.061L396.653 160.002C396.566 160.545 396.362 161.062 396.055 161.519C395.748 161.975 395.346 162.36 394.877 162.646C394.407 162.933 393.881 163.114 393.335 163.178C392.788 163.242 392.234 163.187 391.711 163.017L365.266 240.535C365.583 240.739 365.872 240.984 366.124 241.265L449.982 170.353ZM159.828 53.1301C160.469 53.059 161.075 52.7995 161.569 52.3844C162.062 51.9693 162.422 51.4173 162.601 50.7981C162.781 50.179 162.773 49.5205 162.578 48.9059C162.383 48.2914 162.01 47.7483 161.506 47.3456C161.003 46.9428 160.391 46.6983 159.748 46.6431C159.105 46.5878 158.46 46.7243 157.895 47.0352C157.33 47.3461 156.87 47.8175 156.573 48.3898C156.276 48.9621 156.155 49.6095 156.226 50.2502C156.322 51.1093 156.755 51.8954 157.43 52.4354C158.106 52.9755 158.968 53.2254 159.828 53.1301Z" fill="white"/>
</svg>
