<svg width="151" height="38" viewBox="0 0 151 38" fill="none" xmlns="http://www.w3.org/2000/svg">
<path fill-rule="evenodd" clip-rule="evenodd" d="M148.106 0H115.97C114.433 0 113.127 1.2157 113.127 2.71332V34.9949C113.127 36.4943 113.984 37.71 115.521 37.71H147.657C149.196 37.71 150.837 36.4943 150.837 34.9949V2.71332C150.837 1.2157 149.645 0 148.106 0Z" fill="#778CA4" fill-opacity="0.17"/>
<path fill-rule="evenodd" clip-rule="evenodd" d="M148.106 0H115.97C114.433 0 113.127 1.2157 113.127 2.71332V34.9949C113.127 36.4943 113.984 37.71 115.521 37.71H147.657C149.196 37.71 150.837 36.4943 150.837 34.9949V2.71332C150.837 1.2157 149.645 0 148.106 0ZM127.493 14.3657H132.569V16.9533H132.625C133.399 15.5581 135.685 14.1413 138.511 14.1413C143.936 14.1413 145.45 17.0216 145.45 22.3566V32.3229H140.063V23.3389C140.063 20.9506 139.109 18.855 136.879 18.855C134.171 18.855 132.88 20.6884 132.88 23.698V32.3229H127.493V14.3657ZM118.514 32.3229H123.901V14.3657H118.514V32.3229ZM124.575 8.08071C124.575 8.52281 124.488 8.96061 124.319 9.36912C124.15 9.77762 123.902 10.1488 123.59 10.4616C123.277 10.7743 122.906 11.0224 122.498 11.1917C122.09 11.361 121.652 11.4482 121.21 11.4483C120.768 11.4484 120.33 11.3615 119.921 11.1924C119.513 11.0233 119.142 10.7754 118.829 10.4628C118.516 10.1503 118.268 9.77919 118.099 9.37077C117.93 8.96236 117.843 8.5246 117.843 8.08251C117.843 7.18988 118.197 6.33378 118.828 5.70249C119.459 5.0712 120.315 4.71642 121.208 4.71618C122.101 4.71594 122.957 5.07027 123.588 5.70122C124.22 6.33217 124.574 7.18809 124.575 8.08071Z" fill="white"/>
<path d="M107.743 32.323H102.715V30.1843H102.661C101.542 31.4809 99.5991 32.5475 96.3058 32.5475C91.8165 32.5475 87.9503 29.1698 87.9503 23.3642C87.9503 17.8334 91.7608 14.1414 96.4746 14.1414C99.3926 14.1414 101.204 15.1794 102.302 16.5046H102.356V5.38733H107.743V32.323ZM97.8286 18.1818C94.7489 18.1818 93.0178 20.378 93.0178 23.2978C93.0178 26.2194 94.7489 28.5072 97.8286 28.5072C100.912 28.5072 102.715 26.2787 102.715 23.2978C102.715 20.2343 100.912 18.1818 97.8286 18.1818ZM85.5854 29.4301C84.314 31.0768 81.6959 32.5475 77.4687 32.5475C71.8302 32.5475 68.2388 28.8124 68.2388 22.9458C68.2388 17.7329 71.4908 14.1414 77.6268 14.1414C82.9259 14.1414 86.1941 17.6215 86.1941 23.7431C86.1941 24.3537 86.0954 24.9606 86.0954 24.9606H73.3206L73.3512 25.5155C73.7049 27.0634 74.8739 28.9561 77.5567 28.9561C79.8983 28.9561 81.5037 27.6973 82.2292 26.7114L85.5854 29.4301ZM81.0099 21.547C81.0458 19.6543 79.6559 17.7329 77.4652 17.7329C74.8578 17.7329 73.4661 19.7692 73.3206 21.5488H81.0099V21.547Z" fill="white"/>
<path d="M68.2371 14.3658H61.9521L55.6671 21.5486V5.38718H50.28V32.3229H55.6671V23.3443L62.3095 32.3229H68.6699L61.0543 22.5057L68.2371 14.3658ZM28.7314 14.3658H33.8079V16.9534H33.8636C34.6375 15.5581 36.9235 14.1413 39.7499 14.1413C45.1748 14.1413 46.6886 17.5837 46.6886 22.3567V32.3229H41.3014V23.3389C41.3014 20.6956 40.3479 18.855 38.1176 18.855C35.4097 18.855 34.1186 20.9991 34.1186 23.6981V32.3229H28.7314V14.3658ZM19.7529 32.3229H25.14V14.3658H19.7529V32.3229ZM22.4482 11.313C22.879 11.3232 23.3074 11.2471 23.7084 11.0893C24.1093 10.9315 24.4746 10.6951 24.7829 10.394C25.0911 10.0929 25.3361 9.73327 25.5033 9.33617C25.6705 8.93906 25.7567 8.51253 25.7567 8.08165C25.7567 7.65077 25.6705 7.22424 25.5033 6.82713C25.3361 6.43003 25.0911 6.07037 24.7829 5.7693C24.4746 5.46824 24.1093 5.23184 23.7084 5.07401C23.3074 4.91618 22.879 4.84011 22.4482 4.85026C21.6044 4.87016 20.8018 5.21934 20.2121 5.82317C19.6223 6.42701 19.2921 7.23759 19.2921 8.08165C19.2921 8.92571 19.6223 9.73629 20.2121 10.3401C20.8018 10.944 21.6044 11.2931 22.4482 11.313ZM5.38714 5.38718H0V32.3229H16.1614V26.9358H5.38714V5.38718Z" fill="white"/>
</svg>
