<svg width="16" height="16" viewBox="0 0 16 16" fill="none" xmlns="http://www.w3.org/2000/svg">
<path fill-rule="evenodd" clip-rule="evenodd" d="M8 15C9.85652 15 11.637 14.2625 12.9497 12.9497C14.2625 11.637 15 9.85652 15 8C15 6.14348 14.2625 4.36301 12.9497 3.05025C11.637 1.7375 9.85652 1 8 1C6.14348 1 4.36301 1.7375 3.05025 3.05025C1.7375 4.36301 1 6.14348 1 8C1 9.85652 1.7375 11.637 3.05025 12.9497C4.36301 14.2625 6.14348 15 8 15ZM12 8C12 7.80109 11.921 7.61032 11.7803 7.46967C11.6397 7.32902 11.4489 7.25 11.25 7.25H4.75C4.55109 7.25 4.36032 7.32902 4.21967 7.46967C4.07902 7.61032 4 7.80109 4 8C4 8.19891 4.07902 8.38968 4.21967 8.53033C4.36032 8.67098 4.55109 8.75 4.75 8.75H11.25C11.4489 8.75 11.6397 8.67098 11.7803 8.53033C11.921 8.38968 12 8.19891 12 8Z" fill="#0E2C5D"/>
</svg>
