<svg width="140" height="38" viewBox="0 0 140 38" fill="none" xmlns="http://www.w3.org/2000/svg">
<g clip-path="url(#clip0_440_1642)">
<path d="M43.2969 18.1294C43.2969 24.2944 47.256 28.593 52.7423 28.593C58.2286 28.593 62.1878 24.2944 62.1878 18.1294C62.1878 11.9644 58.2286 7.66589 52.7423 7.66589C47.256 7.66589 43.2969 11.9644 43.2969 18.1294ZM58.568 18.1294C58.568 22.5411 56.1642 25.3973 52.7423 25.3973C49.3205 25.3973 46.9167 22.5411 46.9167 18.1294C46.9167 13.7178 49.3205 10.8615 52.7423 10.8615C56.1642 10.8615 58.568 13.7178 58.568 18.1294Z" fill="white"/>
<path d="M72.3826 28.593C76.5397 28.593 78.9152 25.0863 78.9152 20.8726C78.9152 16.6589 76.5397 13.1522 72.3826 13.1522C70.4596 13.1522 69.0456 13.9158 68.1123 15.0187V13.435H64.7188V33.3723H68.1123V26.7265C69.0456 27.8294 70.4596 28.593 72.3826 28.593ZM68.0275 20.4484C68.0275 17.6487 69.6112 16.1216 71.7039 16.1216C74.1642 16.1216 75.4934 18.0446 75.4934 20.8726C75.4934 23.7006 74.1642 25.6236 71.7039 25.6236C69.6112 25.6236 68.0275 24.0682 68.0275 21.3251V20.4484Z" fill="white"/>
<path d="M88.0942 28.593C91.0635 28.593 93.4108 27.0376 94.4571 24.4359L91.5443 23.333C91.0918 24.8601 89.7627 25.7085 88.0942 25.7085C85.9166 25.7085 84.3895 24.1531 84.135 21.6079H94.542V20.4767C94.542 16.4044 92.2513 13.1522 87.9528 13.1522C83.6542 13.1522 80.8828 16.5175 80.8828 20.8726C80.8828 25.4539 83.8522 28.593 88.0942 28.593ZM87.9245 16.0085C90.0738 16.0085 91.0918 17.4225 91.1201 19.0627H84.3047C84.8137 17.0548 86.1711 16.0085 87.9245 16.0085Z" fill="white"/>
<path d="M97.0938 28.2819H100.487V19.5717C100.487 17.4508 102.043 16.3196 103.57 16.3196C105.436 16.3196 106.172 17.6487 106.172 19.4869V28.2819H109.565V18.4971C109.565 15.3015 107.699 13.1522 104.588 13.1522C102.665 13.1522 101.336 14.0289 100.487 15.0187V13.435H97.0938V28.2819Z" fill="white"/>
<path d="M119.497 7.97693L111.805 28.2818H115.396L117.121 23.6439H125.888L127.641 28.2818H131.289L123.597 7.97693H119.497ZM121.476 11.9927L124.7 20.4766H118.309L121.476 11.9927Z" fill="white"/>
<path d="M137.12 8.03601H133.5V28.3409H137.12V8.03601Z" fill="white"/>
<path d="M35.0024 15.4345C35.8579 12.867 35.5633 10.0543 34.1952 7.71886C32.1379 4.13675 28.002 2.29385 23.9627 3.1611C22.1657 1.13673 19.584 -0.0144906 16.8774 0.00200595C12.7485 -0.00742066 9.08511 2.65088 7.81488 6.57942C5.16246 7.12263 2.87298 8.78289 1.53322 11.136C-0.539454 14.7087 -0.0669459 19.2123 2.70212 22.2759C1.84666 24.8435 2.14124 27.6561 3.50927 29.9916C5.56663 33.5737 9.70255 35.4166 13.7419 34.5493C15.5376 36.5737 18.1205 37.7249 20.8271 37.7073C24.9583 37.7179 28.6229 35.0572 29.8932 31.1251C32.5456 30.5819 34.8351 28.9217 36.1748 26.5685C38.2451 22.9959 37.7715 18.4958 35.0036 15.4322L35.0024 15.4345ZM20.8295 35.2434C19.1763 35.2457 17.5749 34.6672 16.3059 33.6079C16.3636 33.5772 16.4638 33.5218 16.5286 33.4818L24.0369 29.1455C24.421 28.9275 24.6567 28.5187 24.6543 28.0768V17.4919L27.8276 19.3242C27.8617 19.3407 27.8841 19.3737 27.8888 19.4114V28.177C27.8841 32.0749 24.7274 35.2351 20.8295 35.2434ZM5.64793 28.759C4.81957 27.3286 4.52145 25.6518 4.80543 24.0245C4.86081 24.0575 4.95861 24.1176 5.02813 24.1577L12.5364 28.4939C12.917 28.7166 13.3884 28.7166 13.7701 28.4939L22.9363 23.2009V26.8655C22.9387 26.9032 22.921 26.9397 22.8916 26.9633L15.302 31.3455C11.9213 33.2921 7.60396 32.1349 5.64911 28.759H5.64793ZM3.67188 12.3697C4.49671 10.9369 5.79876 9.84103 7.34944 9.2719C7.34944 9.3367 7.3459 9.451 7.3459 9.53113V18.2048C7.34354 18.6455 7.57921 19.0544 7.96217 19.2723L17.1284 24.5642L13.9551 26.3965C13.9233 26.4177 13.8833 26.4212 13.8479 26.4059L6.25713 22.0202C2.88358 20.0665 1.72647 15.7503 3.6707 12.3709L3.67188 12.3697ZM29.7435 18.4369L20.5773 13.1439L23.7506 11.3128C23.7824 11.2915 23.8224 11.288 23.8578 11.3033L31.4486 15.6855C34.828 17.638 35.9863 21.9613 34.0338 25.3407C33.2078 26.7712 31.9069 27.8671 30.3574 28.4374V19.5045C30.361 19.0638 30.1265 18.6561 29.7447 18.4369H29.7435ZM32.9014 13.6835C32.8461 13.6494 32.7482 13.5905 32.6787 13.5504L25.1704 9.21416C24.7898 8.99145 24.3185 8.99145 23.9367 9.21416L14.7705 14.5072V10.8426C14.7682 10.8049 14.7859 10.7684 14.8153 10.7448L22.4049 6.36614C25.7855 4.41601 30.1076 5.57667 32.0566 8.95846C32.8802 10.3866 33.1783 12.0586 32.8991 13.6835H32.9014ZM13.0455 20.215L9.87105 18.3827C9.83688 18.3662 9.81449 18.3332 9.80978 18.2955V9.52995C9.81214 5.62733 12.9783 2.46471 16.8809 2.46706C18.5317 2.46706 20.1296 3.0468 21.3986 4.10258C21.3409 4.13322 21.2419 4.1886 21.1759 4.22866L13.6676 8.5649C13.2835 8.78289 13.0478 9.19059 13.0502 9.63246L13.0455 20.2126V20.215ZM14.7694 16.4986L18.8523 14.1407L22.9352 16.4974V21.2119L18.8523 23.5685L14.7694 21.2119V16.4986Z" fill="white"/>
</g>
<defs>
<clipPath id="clip0_440_1642">
<rect width="139.042" height="37.7064" fill="white" transform="translate(0 0.00183105)"/>
</clipPath>
</defs>
</svg>
