<svg width="75" height="58" viewBox="0 0 75 58" fill="none" xmlns="http://www.w3.org/2000/svg">
<g opacity="0.2" clip-path="url(#clip0_401_345)">
<path d="M54.9144 56.974C46.4519 56.974 39.3989 50.0954 39.3989 41.5875C39.3989 33.6231 44.1593 27.4684 60.9093 1.03979H74.6625L60.9093 26.5629C67.4332 29.2787 70.7833 34.8899 70.7833 41.2256C70.7833 49.9145 63.5546 56.974 54.9144 56.974ZM0.960938 41.5875C0.960938 33.6231 5.72127 27.4684 22.4719 1.03979H36.2252L22.6483 26.5629C28.9958 29.2787 32.346 34.8899 32.346 41.2256C32.346 49.9145 25.293 56.974 16.4771 56.974C8.01392 56.974 0.960938 50.0954 0.960938 41.5875Z" fill="#234874"/>
</g>
<defs>
<clipPath id="clip0_401_345">
<rect width="73.7016" height="56.5923" fill="white" transform="translate(0.960938 0.810791)"/>
</clipPath>
</defs>
</svg>
