<svg width="16" height="17" viewBox="0 0 16 17" fill="none" xmlns="http://www.w3.org/2000/svg">
<path d="M4.00294 4.49903H9.33594M4.00294 7.16503H12.0029M8.66994 9.83203H12.0029M8.66994 12.499H12.0029M1.33594 14.765V2.23203C1.33594 2.12594 1.37808 2.0242 1.45309 1.94919C1.52811 1.87417 1.62985 1.83203 1.73594 1.83203H12.1709C12.2235 1.83199 12.2755 1.8423 12.3241 1.86238C12.3726 1.88245 12.4168 1.9119 12.4539 1.94903L14.5519 4.04803C14.5894 4.08524 14.6191 4.1295 14.6393 4.17824C14.6596 4.22698 14.67 4.27925 14.6699 4.33203V14.765C14.6699 14.8711 14.6278 14.9729 14.5528 15.0479C14.4778 15.1229 14.376 15.165 14.2699 15.165H1.73594C1.62985 15.165 1.52811 15.1229 1.45309 15.0479C1.37808 14.9729 1.33594 14.8711 1.33594 14.765Z" stroke="#2C406E" stroke-linecap="round" stroke-linejoin="round"/>
<path d="M12 1.83203V4.09903C12 4.20512 12.0421 4.30686 12.1172 4.38187C12.1922 4.45689 12.2939 4.49903 12.4 4.49903H14.667" stroke="#2C406E" stroke-linecap="round" stroke-linejoin="round"/>
<path d="M4 9.83203V12.499H6V9.83203H4Z" fill="#2C406E" stroke="#2C406E" stroke-linecap="round" stroke-linejoin="round"/>
</svg>
