<svg width="50" height="50" viewBox="0 0 50 50" fill="none" xmlns="http://www.w3.org/2000/svg">
<g clip-path="url(#clip0_303_468)">
<path d="M18.3491 17.0249L10.361 19.0227L4.49219 30.7604L15.8678 27.916L18.3491 17.0249Z" fill="#7F6D67"/>
<path d="M32.9729 31.6367L22.0788 34.1312L19.2344 45.5067L30.9722 39.6379L32.9729 31.6367Z" fill="#635550"/>
<path d="M28.8815 34.409C25.4013 35.9833 22.8946 36.4184 22.6873 36.5012L13.4688 27.2826C13.6759 26.7854 13.9866 24.403 15.4989 21.0264L20.0772 21.4614L28.9644 30.3485L28.8815 34.409Z" fill="#FF3636"/>
<path d="M28.8947 34.4091C25.4145 35.9834 22.9078 36.4185 22.7005 36.5013L18.1016 31.9023L24.3164 25.6875L28.9775 30.3486L28.8947 34.4091Z" fill="#CE2700"/>
<path d="M40.0898 26.4751C36.7339 29.9555 32.7978 32.6484 28.8825 34.4094L15.5 21.0269C17.0952 17.4845 19.7675 13.5275 23.5171 9.90235C35.9674 -2.09238 48.0034 0.414356 49.9922 0C49.5985 1.96807 52.0638 14.0455 40.0898 26.4751Z" fill="#C2C6CB"/>
<path d="M40.0916 26.4751C36.7356 29.9555 32.7995 32.6484 28.8843 34.4094L22.2344 27.7595L49.9939 0C49.6003 1.96807 52.0655 14.0455 40.0916 26.4751Z" fill="#DFD7D5"/>
<path d="M17.9937 38.0138C16.8336 39.1738 0.165723 49.917 0 49.9998C3.7082 43.2256 10.598 32.9798 11.7789 31.7989C13.4983 30.0795 16.295 30.1002 17.9937 31.7989C18.0351 31.8402 18.0559 31.861 18.0766 31.9232C19.7131 33.6428 19.6717 36.3357 17.9937 38.0138Z" fill="#FFE477"/>
<path d="M38.8158 19.473C36.5371 21.7517 32.8081 21.7517 30.5293 19.473C28.2506 17.1943 28.2506 13.4653 30.5293 11.1866C32.8081 8.90786 36.5371 8.90786 38.8158 11.1866C41.0945 13.4653 41.0945 17.1943 38.8158 19.473Z" fill="#7F6D67"/>
<path d="M27.4206 24.6512L29.4922 22.5796L27.4206 20.508L25.349 22.5796L27.4206 24.6512Z" fill="#BFBFBF"/>
<path d="M41.9284 10.1502L44 8.07861L41.9284 6.00703L39.8568 8.07861L41.9284 10.1502Z" fill="#BFBFBF"/>
<path d="M40.8783 9.11509L41.9141 10.1509L43.9856 8.0793L42.9499 7.04351L40.8783 9.11509Z" fill="#ACACAC"/>
<path d="M26.3783 23.617L27.4141 24.6528L29.4856 22.5813L28.4499 21.5455L26.3783 23.617Z" fill="#ACACAC"/>
<path d="M30.5156 19.4729L38.802 11.1865C41.0808 13.4652 41.0808 17.1942 38.802 19.4729C36.5233 21.7517 32.7943 21.7517 30.5156 19.4729Z" fill="#635550"/>
<path d="M34.6727 18.2519C33.8854 18.2519 33.1497 17.9497 32.601 17.4009C32.0522 16.852 31.75 16.1164 31.75 15.3293C31.75 14.5421 32.0522 13.8064 32.601 13.2577C33.1497 12.709 33.8854 12.4067 34.6727 12.4067C35.4598 12.4067 36.1955 12.7089 36.7442 13.2577C37.8864 14.4 37.8864 16.2586 36.7442 17.401C36.1955 17.9497 35.4598 18.2519 34.6727 18.2519Z" fill="#00C7CE"/>
<path d="M34.6654 18.2525C35.4525 18.2525 36.1883 17.9504 36.737 17.4016C37.8792 16.2593 37.8792 14.4007 36.737 13.2583L32.5938 17.4016C33.1426 17.9504 33.8783 18.2525 34.6654 18.2525Z" fill="#00969B"/>
<path d="M17.9937 38.0139C16.8336 39.1739 0.165723 49.9171 0 49.9999L18.0766 31.9233C19.7131 33.6429 19.6717 36.3358 17.9937 38.0139Z" fill="#FDBF00"/>
</g>
<defs>
<clipPath id="clip0_303_468">
<rect width="50" height="50" fill="white"/>
</clipPath>
</defs>
</svg>
