<svg width="75" height="75" viewBox="0 0 75 75" fill="none" xmlns="http://www.w3.org/2000/svg">
<g opacity="0.2" clip-path="url(#clip0_440_1176)">
<path d="M24.2689 50.2717C24.8289 50.8317 25.4124 51.3577 26.0169 51.8517L19.5613 58.3073L16.1875 54.9335L22.6483 48.4727C23.1541 49.0949 23.6932 49.696 24.2689 50.2717Z" fill="#585A60"/>
<path d="M24.2367 50.2381C23.6733 49.6725 23.1445 49.0829 22.6483 48.4722L16.1875 54.933L17.8645 56.6101L24.2367 50.2381Z" fill="#4C4F56"/>
<path d="M23.5675 8.75452C35.2095 -2.88757 54.1524 -2.88757 65.7944 8.75452C77.4363 20.3966 77.4364 39.3395 65.7944 50.9814C54.1523 62.6234 35.2094 62.6235 23.5675 50.9814C11.9255 39.3393 11.9254 20.3966 23.5675 8.75452ZM26.5569 11.7441C16.5633 21.7377 16.5633 37.9984 26.5569 47.9921C36.5505 57.9859 52.8112 57.9857 62.8049 47.9921C72.7986 37.9985 72.7985 21.7378 62.8049 11.7441C52.8113 1.75037 36.5505 1.75051 26.5569 11.7441Z" fill="#4976B1"/>
<path d="M26.5609 50.9819C14.9188 39.3398 14.9188 20.3969 26.5609 8.75497C32.002 3.31374 39.0377 0.416424 46.1776 0.0611371C38.0407 -0.343637 29.7685 2.55382 23.5675 8.75483C11.9254 20.3969 11.9254 39.3398 23.5675 50.9817C29.7685 57.1827 38.0407 60.0802 46.1776 59.6754C39.0377 59.3203 32.002 56.423 26.5609 50.9819Z" fill="#6B8FBD"/>
<path d="M1.07929 71.0573L3.44127 73.4193C4.88032 74.8584 7.21363 74.8584 8.65283 73.4193L21.7503 60.3219C22.0898 59.9823 22.0898 59.432 21.7503 59.0924L15.4062 52.7483C15.0666 52.4088 14.5163 52.4088 14.1767 52.7483L1.07929 65.8458C-0.359763 67.285 -0.359763 69.6183 1.07929 71.0573Z" fill="#C87E6A"/>
<path d="M3.07748 67.968C17.4929 53.5526 16.5245 54.3831 17.0134 54.3535L15.4264 52.7664C15.077 52.4171 14.5107 52.4171 14.1614 52.7664L1.15738 65.7707C-0.323294 67.2514 -0.323294 69.6521 1.15738 71.1329L2.36545 72.3409C1.65764 70.9217 1.8943 69.1514 3.07748 67.968Z" fill="#BD725E"/>
<path d="M57.1651 34.9966L48.1014 31.4375H41.2457L32.182 34.9966C32.182 34.9966 28.8281 36.3754 28.8281 40.1992V43.936C28.8281 44.5016 29.2866 44.9601 29.8522 44.9601H59.5617C60.0903 44.9601 60.519 44.5316 60.519 44.0028V40.199C60.5191 36.3754 57.1651 34.9966 57.1651 34.9966Z" fill="#5091D7"/>
<path d="M31.2461 38.1796V39.0087C31.2461 36.661 32.5101 35.236 33.4863 34.4849L32.182 34.9971C32.182 34.9971 28.8281 36.3758 28.8281 40.1996V43.9364C28.8281 44.502 29.2866 44.9605 29.8522 44.9605H31.2461C31.2461 43.428 31.2461 39.6768 31.2461 38.1796Z" fill="#4B82C8"/>
<path d="M44.8416 8.60567C40.2247 8.5128 36.4701 12.3253 36.4701 16.9432C36.4701 16.9592 36.4635 20.331 36.4797 20.331H52.8772V20.3309V19.6053V17.533V16.8074C52.8772 12.3329 49.295 8.69532 44.8416 8.60567Z" fill="#585A60"/>
<path d="M38.3079 16.9433C38.3079 12.6894 41.4946 9.12178 45.6058 8.65777C45.3542 8.62924 45.0993 8.6109 44.8412 8.60567C40.2241 8.5128 36.4696 12.3253 36.4696 16.9433C36.4696 16.9582 36.4644 20.3312 36.4793 20.3312H38.3175C38.3015 20.3312 38.3079 16.9595 38.3079 16.9433Z" fill="#4C4F56"/>
<path d="M38.61 19.1718C36.7131 18.8483 35.5391 20.1114 35.5391 21.4717C35.5391 22.8741 36.7805 24.1139 38.6202 23.7698C38.6204 23.7611 38.6185 19.1732 38.61 19.1718Z" fill="#E8AD7C"/>
<path d="M38.6173 23.4493C37.1601 22.5292 37.1608 20.4142 38.6173 19.4943C38.6173 19.4822 38.622 19.174 38.61 19.1718C36.7481 18.8543 35.5391 20.0772 35.5391 21.4717C35.5391 22.89 36.7969 24.1111 38.6202 23.7698C38.6177 23.6282 38.6173 23.7954 38.6173 23.4493Z" fill="#DD9E6F"/>
<path d="M51.4684 19.1323C51.3246 19.1323 50.8836 19.1469 50.737 19.1719C50.7324 19.1726 50.7298 19.1767 50.7298 19.1814V23.6461C50.7298 23.6877 50.7274 23.7286 50.7266 23.7701C50.8663 23.7963 51.3208 23.8116 51.4683 23.8116C52.7603 23.8116 53.8077 22.7642 53.8077 21.4722C53.8077 20.1798 52.7602 19.1323 51.4684 19.1323Z" fill="#E8AD7C"/>
<path d="M52.8819 19.6107C52.489 19.3118 52.0003 19.1323 51.4684 19.1323C51.3246 19.1323 50.8836 19.1469 50.737 19.1719C50.7324 19.1728 50.7298 19.1767 50.7298 19.1814V23.6461C50.7298 23.6877 50.7274 23.7286 50.7266 23.7701C50.8663 23.7963 51.3208 23.8115 51.4683 23.8115C52.0001 23.8115 52.4887 23.632 52.8817 23.333L52.8819 19.6107Z" fill="#DD9E6F"/>
<path d="M44.7574 29.6133H44.5828C43.3617 29.6133 42.2219 29.2615 41.2566 28.6558C41.2503 28.6519 41.2422 28.6563 41.2422 28.6637V32.7245C41.2422 32.7273 41.2434 32.7299 41.2454 32.7317L44.6636 35.7419C44.6673 35.7451 44.6726 35.7451 44.6763 35.7419L48.0945 32.7317C48.0966 32.7299 48.0977 32.7273 48.0977 32.7245V28.6637C48.0977 28.6563 48.0897 28.6518 48.0833 28.6558C47.1183 29.2615 45.9785 29.6133 44.7574 29.6133Z" fill="#E8AD7C"/>
<path d="M43.8887 29.5746C42.9303 29.4682 42.0363 29.1451 41.2566 28.6558C41.2503 28.6518 41.2422 28.6562 41.2422 28.6636V32.7245C41.2422 32.7272 41.2434 32.7299 41.2454 32.7316L43.8886 35.0594V29.5746H43.8887Z" fill="#DD9E6F"/>
<path d="M50.9736 17.9554L48.5733 15.3753C48.4854 15.2807 48.3403 15.268 48.2375 15.3459C46.1327 16.9379 42.2247 18.321 38.5944 17.8796C38.4439 17.8618 38.3125 17.9787 38.3125 18.1294V23.6362C38.3125 27.1089 41.1277 29.9238 44.6001 29.9238H44.7556C48.2282 29.9238 51.0432 27.1086 51.0432 23.6362V18.1331C51.0434 18.0672 51.0184 18.0037 50.9736 17.9554Z" fill="#F9C795"/>
<path d="M40.9589 23.6367V20.9241C40.9589 19.1798 40.9589 19.6986 40.9589 17.938C38.8397 18.0862 38.3125 17.6437 38.3125 18.1298V23.6367C38.3125 27.1094 41.1277 29.9243 44.6001 29.9243H44.7556C45.182 29.9243 45.5984 29.8814 46.001 29.8006C43.1251 29.2225 40.9589 26.6829 40.9589 23.6367Z" fill="#E8AD7C"/>
<path d="M53.7267 39.8218C53.1786 39.8218 52.7344 40.2661 52.7344 40.8141V44.9604H54.7192V40.8141C54.7191 40.266 54.2749 39.8218 53.7267 39.8218Z" fill="#4B82C8"/>
<path d="M36.6253 44.9604V40.8141C36.6253 40.266 36.181 39.8218 35.633 39.8218C35.0848 39.8218 34.6406 40.2661 34.6406 40.8141V44.9604H36.6253Z" fill="#4B82C8"/>
</g>
<defs>
<clipPath id="clip0_440_1176">
<rect width="74.5215" height="74.5215" fill="white"/>
</clipPath>
</defs>
</svg>
