<svg width="91" height="38" viewBox="0 0 91 38" fill="none" xmlns="http://www.w3.org/2000/svg">
<mask id="mask0_440_1679" style="mask-type:luminance" maskUnits="userSpaceOnUse" x="0" y="0" width="91" height="38">
<path d="M0 0H90.9114V37.71H0V0Z" fill="white"/>
</mask>
<g mask="url(#mask0_440_1679)">
<path fill-rule="evenodd" clip-rule="evenodd" d="M9.48936 16.9629C7.53012 16.2382 6.45639 15.6746 6.45639 14.7889C6.45639 14.0372 7.07377 13.6078 8.17428 13.6078C10.1873 13.6078 12.2538 14.3863 13.6764 15.084L14.4816 10.1187C13.3543 9.58185 11.046 8.69613 7.8522 8.69613C5.59765 8.69613 3.71872 9.28654 2.37686 10.387C0.981047 11.5411 0.256369 13.2052 0.256369 15.2182C0.256369 18.8684 2.48415 20.4252 6.10754 21.7403C8.44261 22.5723 9.22103 23.1629 9.22103 24.0754C9.22103 24.9611 8.46938 25.471 7.10055 25.471C5.40963 25.471 2.61842 24.639 0.793234 23.5655L-0.0119629 28.5845C1.54468 29.4702 4.44339 30.3827 7.4496 30.3827C9.83822 30.3827 11.8244 29.8191 13.1665 28.7455C14.6694 27.5645 15.4478 25.8201 15.4478 23.5655C15.4478 19.8346 13.1665 18.278 9.48936 16.9629ZM28.5558 14.0372L29.361 9.09873H25.1102V3.10363L19.3949 4.0441L18.5696 9.09873L16.5594 9.42483L15.8069 14.0372H18.5613V23.7265C18.5613 26.2494 19.2055 27.9941 20.5206 29.0676C21.6211 29.9533 23.2045 30.3827 25.4323 30.3827C27.15 30.3827 28.1967 30.0876 28.9214 29.8996V24.6658C28.5188 24.7733 27.6063 24.9611 26.9889 24.9611C25.6738 24.9611 25.1102 24.2902 25.1102 22.7603V14.0372H28.5558ZM41.3214 8.81027C39.4427 8.81027 37.9396 9.79663 37.3492 11.5681L36.9466 9.09873H31.1224V29.9801H37.7786V16.426C38.6107 15.406 39.7916 15.0373 41.4019 15.0373C41.751 15.0373 42.1266 15.0373 42.583 15.1178V8.97131C42.1266 8.86401 41.724 8.81027 41.3214 8.81027ZM47.5484 7.03199C49.4809 7.03199 51.0375 5.44857 51.0375 3.51609C51.0375 1.55665 49.4809 0 47.5484 0C45.589 0 44.0323 1.55665 44.0323 3.51609C44.0323 5.44857 45.589 7.03199 47.5484 7.03199ZM44.1934 9.09873H50.8765V29.9801H44.1934V9.09873ZM69.8153 10.9775C68.6343 9.44758 66.9972 8.69613 64.9036 8.69613C62.9712 8.69613 61.2803 9.50133 59.6966 11.1922L59.3478 9.09873H53.4966V37.71L60.153 36.6097V29.8996C61.1728 30.2217 62.2195 30.3827 63.159 30.3827C64.8231 30.3827 67.2387 29.9533 69.1174 27.9136C70.9156 25.9541 71.8283 22.9213 71.8283 18.9221C71.8283 15.3793 71.1572 12.6953 69.8153 10.9775ZM64.2863 23.8606C63.7494 24.8806 62.9174 25.4175 61.9512 25.4175C61.2803 25.4175 60.6896 25.2832 60.153 25.0149V15.084C61.2803 13.9031 62.3 13.7689 62.6759 13.7689C64.3668 13.7689 65.1987 15.5941 65.1987 19.1637C65.1987 21.2035 64.9036 22.7871 64.2863 23.8606ZM90.9115 19.3515C90.9115 16.0234 90.1868 13.393 88.7643 11.5411C87.3149 9.66237 85.1409 8.69613 82.3764 8.69613C76.7131 8.69613 73.1972 12.8832 73.1972 19.5931C73.1972 23.3507 74.1364 26.1689 75.9884 27.9671C77.6525 29.5775 80.0413 30.3827 83.1279 30.3827C85.9728 30.3827 88.6032 29.7118 90.2674 28.6113L89.5427 24.0486C87.9053 24.9343 85.9998 25.4175 83.8525 25.4175C82.5642 25.4175 81.6785 25.1489 81.0344 24.5853C80.3365 23.9949 79.9339 23.0286 79.7998 21.6598H90.831C90.8578 21.3377 90.9115 19.8346 90.9115 19.3515ZM79.746 17.5801C79.9339 14.6008 80.7391 13.2052 82.2689 13.2052C83.772 13.2052 84.5505 14.6278 84.6577 17.5801H79.746Z" fill="white"/>
</g>
</svg>
